:FULLY-SPECIFIED
:FORCE-ALL-JOINTS-BE-3DOF
:DEGREES
68
root 5.9749 16.7549 -28.021 13.2199 3.25704 -4.47836
lfemur -40.5005 16.9411 -21.4326
ltibia 59.5023 -0 0
lfoot -25.8812 -13.4141 0.083262
ltoes 38.9034 -0 0
rfemur -19.6164 -1.21274 26.364
rtibia 34.584 -0 0
rfoot -33.7559 -21.6592 -0.481631
rtoes -10.148 0 0
lowerback -4.60449 2.95868 3.97282
upperback -1.73486 3.80376 -0.332916
thorax 1.02491 1.89853 -2.39613
lowerneck -11.8868 -2.89563 2.57865
upperneck -6.58102 -4.03655 2.55662
head -0.0858022 -2.03592 0.249804
lclavicle 1.89473e-14 8.45307e-15 0
lhumerus -47.7863 -12.4019 103.672
lradius 51.3948 -0 0
lwrist 9.20136 0 0
lhand -13.6925 2.73055 -0.0250632
lfingers 7.12502 0 0
lthumb 17.4755 37.599 -0.0142306
rclavicle 1.89473e-14 8.45307e-15 0
rhumerus -46.4057 1.24929 -101.581
rradius 49.6941 -0 0
rwrist 8.69075 0 0
rhand -29.4495 -26.2552 0.00197674
rfingers 7.12502 0 0
rthumb 2.10402 -60.3244 0.00185374
69
root 5.9982 16.7513 -27.9878 13.2316 3.28286 -4.51384
lfemur -40.6394 17.0384 -21.3679
ltibia 59.5939 -0 0
lfoot -25.7334 -13.4221 0.102226
ltoes 38.7774 -0 0
rfemur -19.5024 -1.30501 26.4241
rtibia 34.3893 -0 0
rfoot -33.8777 -21.7006 -0.533617
rtoes -10.3673 0 0
lowerback -4.59314 2.97181 4.00825
upperback -1.73776 3.82025 -0.333427
thorax 1.01816 1.90671 -2.41666
lowerneck -11.8826 -2.90604 2.57849
upperneck -6.60614 -4.04949 2.5594
head -0.0946133 -2.04279 0.250681
lclavicle 1.80125e-14 8.92637e-15 0
lhumerus -47.7521 -12.3755 103.603
lradius 51.3864 -0 0
lwrist 9.20043 0 0
lhand -13.7067 2.70674 -0.0277754
lfingers 7.12502 0 0
lthumb 17.4385 37.5559 -0.0157635
rclavicle 1.80125e-14 8.92637e-15 0
rhumerus -46.3495 1.30689 -101.582
rradius 49.6903 -0 0
rwrist 8.65839 0 0
rhand -29.3974 -26.2505 0.00218911
rfingers 7.12502 0 0
rthumb 2.13247 -60.3021 0.00204875
70
root 6.02149 16.7477 -27.9547 13.0706 3.27065 -4.4754
lfemur -40.2849 16.97 -21.068
ltibia 59.1326 -0 0
lfoot -25.2667 -13.3726 0.120591
ltoes 38.2705 -0 0
rfemur -19.1967 -1.36754 26.1346
rtibia 33.8592 -0 0
rfoot -33.5383 -21.45 -0.559808
rtoes -10.4521 0 0
lowerback -4.51826 2.93671 3.99229
upperback -1.71338 3.77434 -0.333905
thorax 1.00054 1.88376 -2.41093
lowerneck -11.7244 -2.87413 2.53663
upperneck -6.54637 -4.00288 2.5334
head -0.1023 -2.01948 0.251155
lclavicle 1.70777e-14 9.39966e-15 0
lhumerus -47.1698 -12.4004 102.934
lradius 50.8322 -0 0
lwrist 9.07742 0 0
lhand -13.5392 2.6504 -0.0291225
lfingers 7.12502 0 0
lthumb 17.1864 37.0749 -0.0165684
rclavicle 1.70777e-14 9.39966e-15 0
rhumerus -45.7933 1.36538 -100.98
rradius 49.1468 -0 0
rwrist 8.50807 0 0
rhand -28.9983 -25.9288 0.00233471
rfingers 7.12502 0 0
rthumb 2.1227 -59.6882 0.00219151
71
root 6.04479 16.7441 -27.9215 12.77 3.22807 -4.37721
lfemur -39.5246 16.7634 -20.5785
ltibia 58.2074 -0 0
lfoot -24.544 -13.2743 0.138476
ltoes 37.4516 -0 0
rfemur -18.7389 -1.40474 25.5603
rtibia 33.061 -0 0
rfoot -32.8188 -20.9612 -0.563033
rtoes -10.4229 0 0
lowerback -4.39225 2.86278 3.93419
upperback -1.66709 3.67824 -0.334092
thorax 0.974078 1.83576 -2.38337
lowerneck -11.4428 -2.80835 2.46151
upperneck -6.4177 -3.90867 2.4841
head -0.108798 -1.97204 0.251192
lclavicle 1.6143e-14 9.87296e-15 0
lhumerus -46.1361 -12.4654 101.73
lradius 49.8259 -0 0
lwrist 8.85708 0 0
lhand -13.2241 2.56888 -0.0292544
lfingers 7.12502 0 0
lthumb 16.763 36.2367 -0.0167192
rclavicle 1.6143e-14 9.87296e-15 0
rhumerus -44.8251 1.42569 -99.8449
rradius 48.1573 -0 0
rwrist 8.26355 0 0
rhand -28.318 -25.35 0.00243357
rfingers 7.12502 0 0
rthumb 2.08214 -58.5778 0.00229986
